HIERARCHY
ROOT Hips
{
	OFFSET 0.000000 100.481300 0.000000
	CHANNELS 6 Xposition Yposition Zposition Xrotation Yrotation Zrotation
	JOINT Spine
	{
		OFFSET -0.279200 12.230698 -2.892100
		CHANNELS 3 Xrotation Yrotation Zrotation
		JOINT Spine1
		{
			OFFSET -0.325700 14.269203 -3.374200
			CHANNELS 3 Xrotation Yrotation Zrotation
			JOINT Spine2
			{
				OFFSET -0.372300 16.307602 -0.352600
				CHANNELS 3 Xrotation Yrotation Zrotation
				JOINT Neck
				{
					OFFSET -0.418800 17.814194 8.416900
					CHANNELS 3 Xrotation Yrotation Zrotation
					JOINT Head
					{
						OFFSET 0.000000 7.031097 3.806800
						CHANNELS 3 Xrotation Yrotation Zrotation
						JOINT HeadTop_End
						{
							OFFSET 0.000000 24.646606 12.978600
							CHANNELS 3 Xrotation Yrotation Zrotation
							End Site
							{
								OFFSET 0.000000 27.854965 0.000000
							}
						}
					}
				}
				JOINT LeftShoulder
				{
					OFFSET 16.952999 14.495407 -7.737500
					CHANNELS 3 Xrotation Yrotation Zrotation
					JOINT LeftArm
					{
						OFFSET 9.308998 -2.777710 0.208600
						CHANNELS 3 Xrotation Yrotation Zrotation
						JOINT LeftForeArm
						{
							OFFSET 29.972298 0.000000 0.000000
							CHANNELS 3 Xrotation Yrotation Zrotation
							JOINT LeftHand
							{
								OFFSET 26.026505 0.000000 0.000000
								CHANNELS 3 Xrotation Yrotation Zrotation
								JOINT LeftHandThumb1
								{
									OFFSET 12.240501 -7.147949 9.207150
									CHANNELS 3 Xrotation Yrotation Zrotation
									JOINT LeftHandThumb2
									{
										OFFSET 4.138618 -2.389435 2.389433
										CHANNELS 3 Xrotation Yrotation Zrotation
										JOINT LeftHandThumb3
										{
											OFFSET 2.726913 -1.574387 1.574386
											CHANNELS 3 Xrotation Yrotation Zrotation
											JOINT LeftHandThumb4
											{
												OFFSET 3.941010 -2.275345 2.275342
												CHANNELS 3 Xrotation Yrotation Zrotation
												End Site
												{
													OFFSET -0.005798 5.087799 0.009903
												}
											}
										}
									}
								}
								JOINT LeftHandIndex1
								{
									OFFSET 24.424698 -1.985611 5.953459
									CHANNELS 3 Xrotation Yrotation Zrotation
									JOINT LeftHandIndex2
									{
										OFFSET 6.426697 0.000000 0.000000
										CHANNELS 3 Xrotation Yrotation Zrotation
										JOINT LeftHandIndex3
										{
											OFFSET 5.337898 0.000000 0.000000
											CHANNELS 3 Xrotation Yrotation Zrotation
											JOINT LeftHandIndex4
											{
												OFFSET 4.409401 0.000000 0.000000
												CHANNELS 3 Xrotation Yrotation Zrotation
												End Site
												{
													OFFSET 0.000000 4.409363 0.014373
												}
											}
										}
									}
								}
								JOINT LeftHandMiddle1
								{
									OFFSET 23.810104 0.000000 0.000000
									CHANNELS 3 Xrotation Yrotation Zrotation
									JOINT LeftHandMiddle2
									{
										OFFSET 7.176498 0.000000 0.000000
										CHANNELS 3 Xrotation Yrotation Zrotation
										JOINT LeftHandMiddle3
										{
											OFFSET 6.774902 0.000000 0.000000
											CHANNELS 3 Xrotation Yrotation Zrotation
											JOINT LeftHandMiddle4
											{
												OFFSET 5.403328 0.000000 0.000000
												CHANNELS 3 Xrotation Yrotation Zrotation
												End Site
												{
													OFFSET -0.027702 5.403244 0.017414
												}
											}
										}
									}
								}
								JOINT LeftHandRing1
								{
									OFFSET 22.908401 -0.839279 -6.020567
									CHANNELS 3 Xrotation Yrotation Zrotation
									JOINT LeftHandRing2
									{
										OFFSET 6.337502 0.000000 0.000000
										CHANNELS 3 Xrotation Yrotation Zrotation
										JOINT LeftHandRing3
										{
											OFFSET 5.779297 0.000000 0.000000
											CHANNELS 3 Xrotation Yrotation Zrotation
											JOINT LeftHandRing4
											{
												OFFSET 4.965698 0.000000 0.000000
												CHANNELS 3 Xrotation Yrotation Zrotation
												End Site
												{
													OFFSET 0.000000 4.965668 0.016186
												}
											}
										}
									}
								}
								JOINT LeftHandPinky1
								{
									OFFSET 20.037003 -1.530319 -10.950146
									CHANNELS 3 Xrotation Yrotation Zrotation
									JOINT LeftHandPinky2
									{
										OFFSET 5.254700 0.000000 0.000000
										CHANNELS 3 Xrotation Yrotation Zrotation
										JOINT LeftHandPinky3
										{
											OFFSET 4.810204 0.000000 0.000000
											CHANNELS 3 Xrotation Yrotation Zrotation
											JOINT LeftHandPinky4
											{
												OFFSET 3.647202 0.000000 0.000000
												CHANNELS 3 Xrotation Yrotation Zrotation
												End Site
												{
													OFFSET 0.000000 3.647186 0.011889
												}
											}
										}
									}
								}
							}
						}
					}
				}
				JOINT RightShoulder
				{
					OFFSET -15.141001 14.495407 -7.737500
					CHANNELS 3 Xrotation Yrotation Zrotation
					JOINT RightArm
					{
						OFFSET -9.308998 -2.777710 0.208500
						CHANNELS 3 Xrotation Yrotation Zrotation
						JOINT RightForeArm
						{
							OFFSET -29.972300 0.000000 0.000000
							CHANNELS 3 Xrotation Yrotation Zrotation
							JOINT RightHand
							{
								OFFSET -26.026505 0.000000 0.000000
								CHANNELS 3 Xrotation Yrotation Zrotation
								JOINT RightHandThumb1
								{
									OFFSET -12.240601 -7.148026 9.207092
									CHANNELS 3 Xrotation Yrotation Zrotation
									JOINT RightHandThumb2
									{
										OFFSET -4.138618 -2.389435 2.389433
										CHANNELS 3 Xrotation Yrotation Zrotation
										JOINT RightHandThumb3
										{
											OFFSET -2.726974 -1.574417 1.574421
											CHANNELS 3 Xrotation Yrotation Zrotation
											JOINT RightHandThumb4
											{
												OFFSET -3.941010 -2.275345 2.275343
												CHANNELS 3 Xrotation Yrotation Zrotation
												End Site
												{
													OFFSET 0.005814 5.087799 0.009927
												}
											}
										}
									}
								}
								JOINT RightHandIndex1
								{
									OFFSET -24.424698 -1.985657 5.953444
									CHANNELS 3 Xrotation Yrotation Zrotation
									JOINT RightHandIndex2
									{
										OFFSET -6.426697 0.000000 0.000000
										CHANNELS 3 Xrotation Yrotation Zrotation
										JOINT RightHandIndex3
										{
											OFFSET -5.337898 0.000000 0.000000
											CHANNELS 3 Xrotation Yrotation Zrotation
											JOINT RightHandIndex4
											{
												OFFSET -4.409401 0.000000 0.000000
												CHANNELS 3 Xrotation Yrotation Zrotation
												End Site
												{
													OFFSET 0.000000 4.409363 0.014408
												}
											}
										}
									}
								}
								JOINT RightHandMiddle1
								{
									OFFSET -23.810097 0.000000 0.000000
									CHANNELS 3 Xrotation Yrotation Zrotation
									JOINT RightHandMiddle2
									{
										OFFSET -7.176498 0.000000 0.000000
										CHANNELS 3 Xrotation Yrotation Zrotation
										JOINT RightHandMiddle3
										{
											OFFSET -6.774902 0.000000 0.000000
											CHANNELS 3 Xrotation Yrotation Zrotation
											JOINT RightHandMiddle4
											{
												OFFSET -5.403328 0.000000 0.000000
												CHANNELS 3 Xrotation Yrotation Zrotation
												End Site
												{
													OFFSET 0.027702 5.403244 0.017457
												}
											}
										}
									}
								}
								JOINT RightHandRing1
								{
									OFFSET -22.908302 -0.839325 -6.020576
									CHANNELS 3 Xrotation Yrotation Zrotation
									JOINT RightHandRing2
									{
										OFFSET -6.337502 0.000000 0.000000
										CHANNELS 3 Xrotation Yrotation Zrotation
										JOINT RightHandRing3
										{
											OFFSET -5.779297 0.000000 0.000000
											CHANNELS 3 Xrotation Yrotation Zrotation
											JOINT RightHandRing4
											{
												OFFSET -4.965698 0.000000 0.000000
												CHANNELS 3 Xrotation Yrotation Zrotation
												End Site
												{
													OFFSET 0.000000 4.965668 0.016226
												}
											}
										}
									}
								}
								JOINT RightHandPinky1
								{
									OFFSET -20.037003 -1.530334 -10.950259
									CHANNELS 3 Xrotation Yrotation Zrotation
									JOINT RightHandPinky2
									{
										OFFSET -5.254700 0.000000 0.000000
										CHANNELS 3 Xrotation Yrotation Zrotation
										JOINT RightHandPinky3
										{
											OFFSET -4.810204 0.000000 0.000000
											CHANNELS 3 Xrotation Yrotation Zrotation
											JOINT RightHandPinky4
											{
												OFFSET -3.647202 0.000000 0.000000
												CHANNELS 3 Xrotation Yrotation Zrotation
												End Site
												{
													OFFSET 0.000000 3.647186 0.011917
												}
											}
										}
									}
								}
							}
						}
					}
				}
			}
		}
	}
	JOINT LeftUpLeg
	{
		OFFSET 15.427100 -6.655098 0.678600
		CHANNELS 3 Xrotation Yrotation Zrotation
		JOINT LeftLeg
		{
			OFFSET 4.081073 -39.591068 13.024000
			CHANNELS 3 Xrotation Yrotation Zrotation
			JOINT LeftFoot
			{
				OFFSET -4.081074 -37.707932 -15.979700
				CHANNELS 3 Xrotation Yrotation Zrotation
				JOINT LeftToeBase
				{
					OFFSET 5.346399 -15.068900 20.645000
					CHANNELS 3 Xrotation Yrotation Zrotation
					JOINT LeftToe_End
					{
						OFFSET 2.754700 0.931300 11.300900
						CHANNELS 3 Xrotation Yrotation Zrotation
						End Site
						{
							OFFSET 0.000000 11.669021 0.000000
						}
					}
				}
			}
		}
	}
	JOINT RightUpLeg
	{
		OFFSET -15.569500 -6.655098 0.678600
		CHANNELS 3 Xrotation Yrotation Zrotation
		JOINT RightLeg
		{
			OFFSET -4.081825 -39.591045 13.023800
			CHANNELS 3 Xrotation Yrotation Zrotation
			JOINT RightFoot
			{
				OFFSET 4.081824 -37.707954 -15.979600
				CHANNELS 3 Xrotation Yrotation Zrotation
				JOINT RightToeBase
				{
					OFFSET -5.346400 -15.068900 20.645000
					CHANNELS 3 Xrotation Yrotation Zrotation
					JOINT RightToe_End
					{
						OFFSET -2.754700 0.931300 11.300900
						CHANNELS 3 Xrotation Yrotation Zrotation
						End Site
						{
							OFFSET 0.000000 11.669021 0.000000
						}
					}
				}
			}
		}
	}
}
MOTION
Frames: 4
Frame Time: 0.033333
0.225872 90.517670 -2.258120 -3.846145 -2.229943 -1.040491 0.718110 0.078831 0.495415 1.382330 0.129924 0.966456 1.382507 0.126878 0.966583 9.310038 0.261841 -0.994851 -15.271038 0.594590 0.752651 -0.000000 -0.000000 0.000000 0.565356 5.173185 -9.368074 10.152299 -44.349272 -55.818628 0.000002 -19.653021 0.000022 -25.638672 1.749809 4.878352 -6.141212 -11.690801 -6.761676 9.914106 42.595512 3.409852 -0.422801 8.108097 27.509116 0.000001 -0.000001 0.000001 0.255323 3.378213 -45.814334 5.654086 5.847748 -88.067469 2.162144 4.544795 -50.866362 0.000000 0.000002 0.000001 -0.461459 3.841601 -39.722676 6.450754 5.820351 -95.892851 2.182889 4.561566 -51.127753 -0.000001 0.000001 0.000000 0.469731 4.966832 -39.799417 8.181045 5.368617 -113.503025 3.200486 5.218107 -63.022955 -0.000003 0.000001 -0.000001 -3.762420 9.063691 -45.253804 5.342542 5.828996 -85.005317 8.716830 5.103330 -119.369181 0.000001 -0.000001 0.000002 0.562051 -4.128414 9.276189 -1.060206 27.129098 60.252159 -0.000001 17.064787 -0.000028 0.385994 3.487595 3.231962 -7.341104 13.749665 7.412342 9.855808 -44.489093 -3.903249 -0.115781 -14.513076 -28.973871 -0.000002 0.000001 -0.000001 -0.124374 -2.384776 45.108881 4.500587 -4.654539 88.071157 1.723235 -3.618365 50.920129 0.000001 -0.000000 -0.000001 -0.761622 -2.932891 39.031068 5.133895 -4.632767 95.881663 1.739754 -3.631703 51.181374 -0.000002 -0.000003 -0.000001 0.154761 -4.068809 39.122675 6.509719 -4.273599 113.462843 2.549577 -4.153924 63.067330 0.000001 0.000001 -0.000001 -4.198879 -8.025506 44.637783 4.252919 -4.639637 85.014825 6.935956 -4.062627 119.322271 0.000001 0.000001 -0.000001 -6.778055 13.968623 16.168231 26.399608 6.540923 1.789777 -13.595003 3.816074 -15.999715 -0.002193 0.000000 -0.000002 0.000000 0.000000 -0.000000 -7.821381 -13.004530 -13.528652 25.854863 -3.558706 -0.430514 -12.707082 -2.794367 12.786199 0.000028 0.000009 0.000003 -0.000000 -0.000002 0.000000 
0.221922 90.489136 -2.333697 -3.856242 -2.253737 -0.984136 0.807472 0.080703 0.478021 1.482275 0.132251 0.945307 1.482434 0.129197 0.945469 9.290248 0.248832 -0.990933 -15.341165 0.520125 0.805187 -0.000000 -0.000000 0.000000 0.585069 5.150736 -9.414672 8.613803 -45.615275 -56.820118 0.000009 -17.103557 0.000003 -25.638666 1.749812 4.878355 -6.141212 -11.690805 -6.761676 9.914107 42.595515 3.409855 -0.422804 8.108095 27.509109 0.000000 -0.000001 -0.000004 0.255322 3.378210 -45.814334 5.654088 5.847751 -88.067469 2.162145 4.544798 -50.866365 0.000002 0.000002 0.000000 -0.461461 3.841598 -39.722673 6.450751 5.820351 -95.892851 2.182892 4.561564 -51.127753 0.000000 -0.000002 -0.000000 0.469731 4.966829 -39.799417 8.181047 5.368618 -113.503025 3.200484 5.218107 -63.022961 -0.000001 0.000002 0.000002 -3.762420 9.063688 -45.253801 5.342539 5.828998 -85.005317 8.716831 5.103328 -119.369181 0.000002 0.000000 0.000002 0.599390 -4.178727 9.184258 -0.318417 27.276033 60.025806 -0.000008 17.322862 0.000035 0.426465 3.516587 3.177794 -7.341103 13.749668 7.412340 9.855807 -44.489103 -3.903245 -0.115778 -14.513075 -28.973871 -0.000004 0.000001 0.000002 -0.124375 -2.384775 45.108878 4.500587 -4.654538 88.071157 1.723232 -3.618369 50.920133 0.000000 0.000001 -0.000000 -0.761619 -2.932889 39.031072 5.133891 -4.632768 95.881663 1.739748 -3.631700 51.181374 0.000001 0.000000 0.000000 0.154760 -4.068809 39.122668 6.509726 -4.273603 113.462843 2.549578 -4.153922 63.067330 -0.000001 -0.000000 0.000000 -4.198875 -8.025505 44.637779 4.252922 -4.639638 85.014818 6.935959 -4.062626 119.322271 -0.000002 0.000003 -0.000000 -6.818179 13.932858 16.117004 26.458548 6.604454 1.783616 -13.569180 3.822466 -16.006497 -0.000061 0.000007 -0.000000 -0.000000 0.000000 0.000000 -7.956289 -12.935405 -13.554609 25.997544 -3.587602 -0.525047 -12.718296 -2.798409 12.830246 0.000001 -0.000005 -0.000004 0.000000 -0.000002 0.000000 
0.228265 90.425545 -2.428424 -3.855259 -2.291314 -0.955009 0.810732 0.089663 0.486626 1.557095 0.155591 0.926731 1.557332 0.153097 0.926930 9.419171 0.224336 -0.918304 -15.570526 0.510575 0.635144 0.000000 0.000000 -0.000000 0.578329 5.145664 -9.460809 7.492227 -47.389553 -57.371554 -0.000008 -14.361834 -0.000010 -25.638667 1.749809 4.878355 -6.141208 -11.690799 -6.761674 9.914111 42.595515 3.409856 -0.422804 8.108097 27.509109 0.000000 0.000001 0.000001 0.255322 3.378210 -45.814331 5.654086 5.847749 -88.067469 2.162142 4.544801 -50.866365 0.000002 0.000002 0.000000 -0.461460 3.841600 -39.722673 6.450753 5.820352 -95.892857 2.182889 4.561565 -51.127750 -0.000003 0.000002 0.000001 0.469730 4.966829 -39.799420 8.181044 5.368615 -113.503018 3.200487 5.218107 -63.022961 -0.000001 -0.000000 0.000002 -3.762421 9.063689 -45.253804 5.342538 5.828999 -85.005311 8.716829 5.103329 -119.369181 -0.000000 0.000002 -0.000002 0.575796 -4.133150 8.995160 0.663735 27.415054 59.895821 -0.000004 18.042141 0.000017 -0.004848 2.855719 3.281936 -7.341104 13.749667 7.412340 9.855809 -44.489100 -3.903250 -0.115782 -14.513076 -28.973871 0.000000 0.000003 0.000002 -0.124373 -2.384771 45.108874 4.500596 -4.654539 88.071157 1.723233 -3.618367 50.920129 -0.000003 -0.000000 -0.000001 -0.761619 -2.932888 39.031068 5.133892 -4.632768 95.881663 1.739752 -3.631701 51.181367 -0.000001 0.000003 0.000001 0.154761 -4.068809 39.122671 6.509724 -4.273600 113.462843 2.549574 -4.153925 63.067330 0.000002 0.000001 0.000000 -4.198877 -8.025504 44.637783 4.252920 -4.639637 85.014825 6.935961 -4.062625 119.322271 0.000001 0.000003 -0.000002 -6.951826 13.960822 16.169221 26.619718 6.582623 1.668612 -13.585389 3.836187 -15.930605 -0.005858 -0.000002 -0.000001 0.000000 0.000002 0.000000 -8.141519 -12.726498 -13.457061 26.234415 -3.708293 -0.809404 -12.759959 -2.828293 13.006909 -0.000002 -0.000003 0.000001 0.000000 -0.000000 -0.000000 
0.229623 90.311050 -2.530902 -3.636606 -2.325117 -0.910069 0.757379 0.098973 0.517079 1.896952 0.182486 0.915862 1.897251 0.174885 0.915536 9.608108 0.207608 -0.830193 -16.137708 0.537861 0.321873 0.000000 -0.000000 0.000000 0.531158 5.115812 -9.152839 7.506995 -49.780481 -57.033907 -0.000004 -13.088173 -0.000019 -25.638671 1.749811 4.878354 -6.141211 -11.690803 -6.761676 9.914118 42.595519 3.409854 -0.422801 8.108096 27.509115 -0.000002 -0.000001 0.000000 0.255320 3.378213 -45.814331 5.654089 5.847749 -88.067469 2.162146 4.544801 -50.866365 0.000001 0.000000 -0.000002 -0.461460 3.841598 -39.722673 6.450752 5.820350 -95.892851 2.182889 4.561569 -51.127750 -0.000002 -0.000002 -0.000001 0.469727 4.966829 -39.799417 8.181048 5.368617 -113.503018 3.200485 5.218107 -63.022961 0.000003 0.000001 0.000001 -3.762419 9.063689 -45.253804 5.342542 5.828997 -85.005317 8.716828 5.103330 -119.369167 -0.000004 0.000001 -0.000001 0.462321 -3.960232 8.769109 1.773268 28.703231 59.543636 0.000003 19.097236 -0.000012 -1.179484 2.383804 3.153071 -7.341104 13.749664 7.412341 9.855804 -44.489093 -3.903249 -0.115781 -14.513078 -28.973874 -0.000000 0.000001 0.000002 -0.124371 -2.384775 45.108878 4.500590 -4.654539 88.071157 1.723233 -3.618367 50.920129 -0.000002 0.000000 -0.000001 -0.761618 -2.932888 39.031068 5.133894 -4.632766 95.881670 1.739752 -3.631702 51.181370 0.000003 0.000000 0.000000 0.154762 -4.068811 39.122668 6.509726 -4.273600 113.462836 2.549576 -4.153924 63.067330 0.000001 0.000000 -0.000000 -4.198875 -8.025506 44.637779 4.252923 -4.639639 85.014818 6.935961 -4.062629 119.322271 0.000004 0.000002 -0.000000 -7.386070 13.930782 16.249088 26.928311 6.591714 1.528285 -13.647631 3.853575 -15.851624 -0.018027 -0.000003 0.000000 -0.000000 0.000000 0.000000 -8.625953 -12.452307 -13.377921 26.619457 -3.866009 -1.093923 -12.858942 -2.866897 13.201860 0.007210 -0.000000 -0.000002 -0.000000 -0.000000 0.000000 
